<svg xmlns="http://www.w3.org/2000/svg" xmlns:xlink="http://www.w3.org/1999/xlink" viewBox="0 0 80 65">
<path fill="#e1ddd5" d="M18.180,65.829 C23.020,65.829 27.162,64.217 30.610,60.989 C34.054,57.764 35.780,53.804 35.780,49.109 C35.780,43.244 33.284,38.549 28.300,35.029 L37.320,0.709 L20.600,0.709 L6.300,30.189 C4.244,34.589 2.780,38.184 1.900,40.969 C1.020,43.756 0.580,46.396 0.580,48.889 C0.580,53.729 2.264,57.764 5.640,60.989 C9.012,64.217 13.192,65.829 18.180,65.829 L18.180,65.829 ZM61.960,65.829 C66.800,65.829 70.942,64.217 74.390,60.989 C77.834,57.764 79.560,53.804 79.560,49.109 C79.560,43.244 77.064,38.549 72.080,35.029 L81.100,0.709 L64.380,0.709 L50.080,30.189 C48.024,34.589 46.560,38.184 45.680,40.969 C44.800,43.756 44.360,46.396 44.360,48.889 C44.360,53.729 46.044,57.764 49.420,60.989 C52.792,64.217 56.972,65.829 61.960,65.829 L61.960,65.829 Z"/>
</svg>